<svg width="17" height="17" viewBox="0 0 17 17" fill="none" xmlns="http://www.w3.org/2000/svg">
<path opacity="0.6" d="M9.91675 10.7584C9.91675 11.9384 9.37133 13.0051 8.50008 13.7318C7.74925 14.3718 6.75758 14.7584 5.66675 14.7584C3.32216 14.7584 1.41675 12.9651 1.41675 10.7584C1.41675 8.91844 2.74841 7.35844 4.54758 6.89844C5.03633 8.05844 6.08466 8.95177 7.38091 9.2851C7.73508 9.37844 8.1105 9.4251 8.50008 9.4251C8.88966 9.4251 9.26508 9.37844 9.61925 9.2851C9.8105 9.73844 9.91675 10.2384 9.91675 10.7584Z" fill="#1E638A"/>
<path d="M12.75 5.42529C12.75 5.94529 12.6438 6.44529 12.4525 6.89863C11.9637 8.05863 10.9154 8.95196 9.61917 9.28529C9.265 9.37863 8.88958 9.42529 8.5 9.42529C8.11042 9.42529 7.735 9.37863 7.38083 9.28529C6.08458 8.95196 5.03625 8.05863 4.5475 6.89863C4.35625 6.44529 4.25 5.94529 4.25 5.42529C4.25 3.21863 6.15542 1.42529 8.5 1.42529C10.8446 1.42529 12.75 3.21863 12.75 5.42529Z" fill="#1E638A"/>
<path opacity="0.4" d="M15.5833 10.7584C15.5833 12.9651 13.6779 14.7584 11.3333 14.7584C10.2425 14.7584 9.25083 14.3718 8.5 13.7318C9.37125 13.0051 9.91667 11.9384 9.91667 10.7584C9.91667 10.2384 9.81042 9.73844 9.61917 9.2851C10.9154 8.95177 11.9637 8.05844 12.4525 6.89844C14.2517 7.35844 15.5833 8.91844 15.5833 10.7584Z" fill="#1E638A"/>
</svg>
